<?xml version="1.0" encoding="UTF-8"?>
<svg version="1.1" xmlns="http://www.w3.org/2000/svg" width="1000" height="1000">
    <path d="M0 0 C330 0 660 0 1000 0 C1000 330 1000 660 1000 1000 C670 1000 340 1000 0 1000 C0 670 0 340 0 0 Z " fill="#FEFEFE" transform="translate(0,0)"/>
    <path d="M0 0 C2.62522154 0.51011116 5.26981748 0.85287535 7.91772461 1.22265625 C28.56065666 4.31166329 48.97930083 12.07761091 68.04296875 20.39697266 C68.77999023 20.71005371 69.51701172 21.02313477 70.27636719 21.34570312 C104.32778762 35.92317443 135.49268851 58.80374667 162.04296875 84.39697266 C162.6270752 84.95916504 163.21118164 85.52135742 163.81298828 86.10058594 C171.43922883 93.48233039 178.46925667 101.04860826 185.04296875 109.39697266 C185.72101563 110.19619141 186.3990625 110.99541016 187.09765625 111.81884766 C231.0743215 163.68876052 258.14472519 236.38401779 258.2109375 304.38525391 C258.2142659 305.60488327 258.2175943 306.82451263 258.22102356 308.08110046 C258.22606148 310.65359117 258.22843286 313.22608835 258.22827148 315.79858398 C258.23044111 319.66027128 258.24858445 323.5216645 258.26757812 327.38330078 C258.3135847 347.05648851 257.29323763 366.32990068 253.79296875 385.70947266 C253.5724585 386.93762695 253.35194824 388.16578125 253.12475586 389.43115234 C252.45219635 393.0908966 251.75465843 396.74465264 251.04296875 400.39697266 C250.84783691 401.41001465 250.65270508 402.42305664 250.45166016 403.46679688 C244.30266993 434.33670633 232.87644165 465.18455701 219.04296875 493.39697266 C218.52379883 494.45754883 218.00462891 495.518125 217.46972656 496.61083984 C203.46811789 524.91196376 186.41735377 551.2697412 166.04296875 575.39697266 C165.50865234 576.03425293 164.97433594 576.6715332 164.42382812 577.328125 C159.35285817 583.36944682 154.28908858 589.3687067 148.59765625 594.84228516 C146.90752833 596.53241307 145.39195744 598.31641915 143.85546875 600.14697266 C139.04238962 605.70709289 133.538595 610.53080831 128.04296875 615.39697266 C127.45950684 615.91453125 126.87604492 616.43208984 126.27490234 616.96533203 C113.47061805 628.28411255 100.49469601 639.22503334 86.04296875 648.39697266 C84.59739495 649.33146441 83.15210345 650.26639293 81.70703125 651.20166016 C71.80875451 657.5704063 61.76472441 663.56008105 51.39697266 669.13183594 C49.79003665 669.99546821 48.18564432 670.86384598 46.58349609 671.73632812 C27.09770843 682.33518193 6.95126047 690.86121183 -13.82788086 698.57397461 C-15.67849033 699.28930594 -17.49566624 700.08998678 -19.3046875 700.90478516 C-24.3880209 702.98161228 -29.60262535 704.38731788 -34.89453125 705.83447266 C-36.00828125 706.1415918 -37.12203125 706.44871094 -38.26953125 706.76513672 C-41.49658799 707.6504272 -44.72602384 708.5262232 -47.95703125 709.39697266 C-48.76543457 709.61562988 -49.57383789 709.83428711 -50.40673828 710.05957031 C-57.80270787 712.04180449 -65.23495481 713.72276191 -72.76953125 715.08447266 C-73.42695312 715.2040332 -74.084375 715.32359375 -74.76171875 715.44677734 C-85.09876142 717.21928218 -95.45406924 717.60766199 -105.92163086 717.63720703 C-108.04773426 717.64710394 -110.17294245 717.67832771 -112.29882812 717.70947266 C-113.65494227 717.71598749 -115.01106318 717.72124388 -116.3671875 717.72509766 C-117.58543213 717.73444336 -118.80367676 717.74378906 -120.05883789 717.75341797 C-121.0152417 717.63579102 -121.97164551 717.51816406 -122.95703125 717.39697266 C-123.94703125 715.91197266 -123.94703125 715.91197266 -124.95703125 714.39697266 C-120.67384448 710.4772078 -116.25309983 708.68037042 -110.89453125 706.70947266 C-109.99347656 706.37206055 -109.09242188 706.03464844 -108.1640625 705.68701172 C-94.79467811 700.76358276 -81.17570295 696.48864854 -67.54125977 692.36352539 C-61.2225305 690.45124818 -55.0152952 688.43536252 -48.89453125 685.95947266 C-48.07291504 685.62802246 -47.25129883 685.29657227 -46.40478516 684.95507812 C-27.73168414 677.28790901 -9.29811712 668.75313884 8.04296875 658.39697266 C8.87344727 657.90229492 9.70392578 657.40761719 10.55957031 656.89794922 C27.48050855 646.75537282 43.58360232 635.64770725 59.04296875 623.39697266 C59.65994629 622.91147949 60.27692383 622.42598633 60.91259766 621.92578125 C70.44882763 614.40167445 79.45068916 606.47111868 88.24365234 598.09472656 C90.58689811 595.88374541 92.9715658 593.72045942 95.35717773 591.55541992 C99.91813144 587.4066364 104.30576393 583.22814461 108.26171875 578.48681641 C110.4749452 575.89015818 112.8254065 573.44003067 115.16796875 570.95947266 C121.39907189 564.24400324 126.88333318 557.00587107 132.34716797 549.66210938 C134.03018838 547.41404381 135.73880738 545.18763628 137.453125 542.96337891 C169.30177745 501.25412768 192.04556093 450.91266737 202.04296875 399.39697266 C202.27040771 398.23512451 202.27040771 398.23512451 202.50244141 397.04980469 C206.19565164 377.74646006 207.43398704 358.3360344 207.35546875 338.70947266 C207.35364594 337.75407593 207.35182312 336.7986792 207.34994507 335.81433105 C207.30096374 320.49577884 206.6698259 305.5220852 204.04296875 290.39697266 C203.87667969 289.42598633 203.71039062 288.455 203.5390625 287.45458984 C193.2706465 229.59016412 168.02057512 174.39689355 128.296875 130.87353516 C126.76874915 129.1944506 125.25611017 127.50116443 123.7578125 125.79541016 C119.14146363 120.5535183 114.39606412 115.87175358 109.04296875 111.39697266 C108.12128906 110.58744141 107.19960938 109.77791016 106.25 108.94384766 C81.5706202 87.35920867 52.90943051 72.08401042 22.04296875 61.39697266 C21.14006104 61.07293457 20.23715332 60.74889648 19.30688477 60.41503906 C11.5190037 57.69365226 3.69577331 55.8558911 -4.39453125 54.27197266 C-5.04865997 54.14312683 -5.7027887 54.01428101 -6.3767395 53.88153076 C-33.37827698 48.59936088 -59.65381639 48.49678291 -86.95703125 51.39697266 C-87.71628906 51.47173828 -88.47554687 51.54650391 -89.2578125 51.62353516 C-98.67020439 52.55272924 -107.70851998 54.35436035 -116.82373047 56.82617188 C-119.06225369 57.4251267 -121.30697899 57.99367448 -123.5546875 58.55712891 C-140.23955273 62.77124131 -156.01223993 68.12353747 -171.64111328 75.33398438 C-175.71028655 77.20170316 -179.8032451 79.01584808 -183.89453125 80.83447266 C-185.04018555 81.3476001 -185.04018555 81.3476001 -186.20898438 81.87109375 C-192.3252969 84.60010241 -196.34313703 85.61032408 -202.95703125 85.39697266 C-203.95703125 84.39697266 -203.95703125 84.39697266 -204.45703125 81.52197266 C-204.22281947 71.0676105 -193.05734045 61.31387058 -185.95703125 54.39697266 C-153.68374908 23.96250488 -110.45291944 5.77947624 -66.95703125 -0.60302734 C-66.19600098 -0.7201709 -65.4349707 -0.83731445 -64.65087891 -0.95800781 C-43.59015529 -4.09590177 -20.86708468 -4.29588088 0 0 Z " fill="#8601FF" transform="translate(627.95703125,236.60302734375)"/>
    <path d="M0 0 C0.66 0 1.32 0 2 0 C2.31488354 5.71288703 1.32498347 10.0257362 -0.625 15.375 C-0.92422363 16.21369629 -1.22344727 17.05239258 -1.53173828 17.91650391 C-7.15817339 33.27485851 -13.91874802 48.23689283 -20.40283203 63.24755859 C-28.9588195 83.12070851 -34.69539412 103.52784681 -39.45019531 124.609375 C-39.95862777 126.82010798 -40.49962882 129.019343 -41.0546875 131.21875 C-43.45523114 140.96578496 -44.90282846 150.80204583 -46.1875 160.75 C-46.35451416 162.04083496 -46.52152832 163.33166992 -46.69360352 164.66162109 C-48.64082396 180.35363225 -49.16059809 195.7447829 -49.13037109 211.53955078 C-49.12502246 214.86104927 -49.13033787 218.18241191 -49.13671875 221.50390625 C-49.14504864 239.32711828 -48.2196584 256.68926343 -45.5 274.3125 C-45.30692764 275.56898849 -45.30692764 275.56898849 -45.10995483 276.8508606 C-36.4948961 332.07818156 -16.35777745 386.6172748 15 433 C15.73017334 434.08498779 15.73017334 434.08498779 16.47509766 435.19189453 C25.72751019 448.84644337 35.96493598 461.74170954 47 474 C48.00546875 475.14275391 48.00546875 475.14275391 49.03125 476.30859375 C57.12253473 485.43977951 65.61242395 494.19235914 75 502 C75.8053418 502.67603271 75.8053418 502.67603271 76.62695312 503.36572266 C102.93354941 525.38870473 132.01090875 543.47270768 164 556 C164.68465332 556.2690918 165.36930664 556.53818359 166.07470703 556.81542969 C216.69693894 576.39912225 275.98197121 581.08587584 329 569 C329.63818665 568.85479919 330.27637329 568.70959839 330.93389893 568.55999756 C369.48383915 559.7069763 404.99055944 544.84283819 436 520 C436.5676709 519.54802246 437.1353418 519.09604492 437.72021484 518.63037109 C450.44920158 508.41510749 462.04886331 496.94846702 472 484 C472.45584473 483.42056641 472.91168945 482.84113281 473.38134766 482.24414062 C481.19480557 472.30676088 487.89239943 462.0601551 494 451 C494.66298096 449.8234082 494.66298096 449.8234082 495.33935547 448.62304688 C503.3836599 434.28779369 509.52433527 419.48597684 515 404 C515.51071045 402.55874756 515.51071045 402.55874756 516.03173828 401.08837891 C521.75278587 384.68382808 525.37013204 367.95674334 528.20605469 350.83569336 C531.41036294 331.52424932 531.41036294 331.52424932 537 327 C539.92378751 327 540.93864155 327.94236024 543.0625 329.9375 C547.82877533 337.47129003 548.81239015 346.71434525 550.3515625 355.36328125 C550.6989327 357.31148398 551.0626187 359.25890314 551.52783203 361.18237305 C552.17365492 365.03627274 552.18177829 368.81716274 552.203125 372.71875 C552.21018463 373.56497421 552.21724426 374.41119843 552.22451782 375.2830658 C552.44674907 409.79028881 552.44674907 409.79028881 549 426 C548.80664062 426.99386719 548.61328125 427.98773437 548.4140625 429.01171875 C544.15406002 450.81136105 536.43121444 470.45905928 526 490 C525.66033203 490.64598145 525.32066406 491.29196289 524.97070312 491.95751953 C516.96875 507.09342994 507.18198818 521.04046841 496 534 C495.35417969 534.75667969 494.70835937 535.51335938 494.04296875 536.29296875 C482.52176153 549.44432767 470.1272337 561.68094178 456 572 C454.84894983 572.85806152 453.69790823 573.71613451 452.546875 574.57421875 C444.35816855 580.61163536 435.86548439 586.01404996 427 591 C425.84201904 591.65186279 425.84201904 591.65186279 424.66064453 592.31689453 C411.21943087 599.7990018 397.48797788 605.84576041 383 611 C382.01547852 611.35191406 381.03095703 611.70382812 380.01660156 612.06640625 C358.06302751 619.79041608 335.21628411 625.05554835 312 627 C311.14495377 627.07946365 310.28990753 627.15892731 309.40895081 627.24079895 C302.35833951 627.8746591 295.35862913 628.19758488 288.28125 628.2734375 C287.19725922 628.28610153 286.11326843 628.29876556 284.99642944 628.31181335 C206.39227141 629.05086275 130.46177334 608.02817047 67 560 C66.12504883 559.33919434 66.12504883 559.33919434 65.23242188 558.66503906 C58.09233546 553.23872743 51.25660903 547.60262579 44.6953125 541.484375 C42.5728146 539.52798563 40.42398495 537.6337155 38.23828125 535.75 C33.66568208 531.76159386 29.34960687 527.54167539 25.0625 523.25 C24.26908203 522.45577637 23.47566406 521.66155273 22.65820312 520.84326172 C17.02681752 515.15278132 11.9251961 509.31161941 7 503 C5.41988192 501.14309253 3.83635134 499.28908524 2.25 497.4375 C-17.25738244 474.00448332 -32.89441083 447.46387172 -46 420 C-46.52327881 418.90776123 -46.52327881 418.90776123 -47.05712891 417.79345703 C-53.98011392 403.21695199 -59.6439101 388.21398296 -65 373 C-65.30035156 372.15115234 -65.60070312 371.30230469 -65.91015625 370.42773438 C-76.36621233 340.44865572 -82.48185404 307.61889887 -85 276 C-85.08467529 274.96673584 -85.16935059 273.93347168 -85.2565918 272.86889648 C-88.21202 233.36636059 -85.93362046 193.61872588 -77 155 C-76.59298379 153.1603256 -76.18672676 151.32048307 -75.78125 149.48046875 C-73.15052152 137.77446778 -69.87914167 126.35140534 -66 115 C-65.70222656 114.12730469 -65.40445313 113.25460937 -65.09765625 112.35546875 C-55.56730014 84.71348154 -42.85601088 58.5739109 -27 34 C-26.48679199 33.20287598 -25.97358398 32.40575195 -25.44482422 31.58447266 C-17.90649763 19.97769721 -9.77865036 9.77865036 0 0 Z " fill="#01FFF4" transform="translate(178,199)"/>
    <path d="M0 0 C41.00384772 13.73219342 78.53590895 39.36395954 104.0625 74.5 C104.50513184 75.10360352 104.94776367 75.70720703 105.40380859 76.32910156 C125.57222178 104.04707178 140.09560694 135.29126788 147.875 168.6875 C148.14920776 169.85829102 148.14920776 169.85829102 148.42895508 171.05273438 C149.03951874 173.85969 149.56190172 176.67112975 150.0625 179.5 C150.1881131 180.2019751 150.3137262 180.9039502 150.44314575 181.62719727 C152.79285829 195.11599668 153.5082456 208.29604677 153.39868164 221.97558594 C153.37496378 225.12981659 153.37816974 228.28320166 153.38476562 231.4375 C153.36271387 248.24749528 152.20233894 264.64680514 148.75 281.125 C148.53053711 282.18855713 148.31107422 283.25211426 148.08496094 284.34790039 C146.20392914 293.23839939 143.909983 301.87463174 141.0625 310.5 C140.75860352 311.43859863 140.45470703 312.37719727 140.14160156 313.34423828 C125.35995181 358.72662182 102.59113004 399.63603567 71.0625 435.5 C70.26199219 436.41265625 69.46148438 437.3253125 68.63671875 438.265625 C56.41518061 451.87467835 43.59190192 465.34804678 29.0625 476.5 C27.93968617 477.41949899 26.8201217 478.34297436 25.703125 479.26953125 C16.26746763 487.05562471 6.37454858 493.9274071 -3.9375 500.5 C-4.84024658 501.08080322 -4.84024658 501.08080322 -5.76123047 501.67333984 C-10.07329139 504.42816466 -14.47452522 506.99794358 -18.9375 509.5 C-19.83952148 510.00756836 -20.74154297 510.51513672 -21.67089844 511.03808594 C-40.42139044 521.4631404 -59.74879278 529.33824859 -79.9375 536.5 C-81.3915625 537.01796143 -81.3915625 537.01796143 -82.875 537.54638672 C-105.16586367 545.35936884 -128.54288151 549.6634291 -151.9375 552.5 C-152.8975293 552.61859375 -153.85755859 552.7371875 -154.84667969 552.859375 C-169.66336345 554.59461576 -184.4770997 554.67817628 -199.375 554.6875 C-200.30867401 554.68858765 -201.24234802 554.68967529 -202.20431519 554.6907959 C-220.00067851 554.68844812 -237.51604658 554.04398992 -255.125 551.375 C-255.84373291 551.2677359 -256.56246582 551.1604718 -257.30297852 551.04995728 C-350.44460116 537.02390969 -443.43719629 491.18217711 -504.9375 418.5 C-505.72253906 417.60410156 -506.50757813 416.70820312 -507.31640625 415.78515625 C-520.38270219 400.7814021 -531.69466903 384.53731788 -541.9375 367.5 C-542.52192871 366.53392822 -542.52192871 366.53392822 -543.11816406 365.54833984 C-552.7401326 349.49618353 -561.48804519 332.26656791 -567.75 314.625 C-568.10421021 313.62835327 -568.10421021 313.62835327 -568.46557617 312.61157227 C-569.61772509 309.14691217 -570.1803534 306.14973974 -569.9375 302.5 C-558.67534937 306.00557104 -550.26280146 321.09474941 -543.56152344 330.27587891 C-541.84221752 332.63049058 -540.1135675 334.97801139 -538.3828125 337.32421875 C-537.7839624 338.13640869 -537.1851123 338.94859863 -536.56811523 339.78540039 C-535.35720084 341.42689104 -534.14577592 343.0680052 -532.93383789 344.70874023 C-530.46993721 348.04742274 -528.00812639 351.38476922 -525.61328125 354.7734375 C-516.16239879 367.91466453 -504.32363209 379.18192608 -492.9375 390.625 C-492.16100098 391.40625244 -491.38450195 392.18750488 -490.58447266 392.99243164 C-485.86357136 397.69963593 -481.00566999 402.17048883 -475.9375 406.5 C-474.91642203 407.38904203 -473.89557062 408.27834436 -472.875 409.16796875 C-464.51060909 416.34221361 -455.82538144 422.9895262 -446.9375 429.5 C-446.35387695 429.9316748 -445.77025391 430.36334961 -445.16894531 430.80810547 C-406.43570257 459.42779233 -362.80102389 480.16030693 -316.9375 494.5 C-316.18049805 494.74057129 -315.42349609 494.98114258 -314.64355469 495.22900391 C-231.55127961 521.31255318 -137.44878463 513.26510863 -60.3203125 473.37890625 C-40.83448568 463.07423927 -22.7086365 450.81041419 -5.9375 436.5 C-4.81523049 435.56365066 -3.69282603 434.62746305 -2.5703125 433.69140625 C11.45059122 421.88531982 24.94078397 409.11088184 36.0625 394.5 C37.07299838 393.21648619 38.08482559 391.93401794 39.09765625 390.65234375 C58.714481 365.65933561 73.00708654 338.27147876 84.0625 308.5 C84.37155273 307.68289551 84.68060547 306.86579102 84.99902344 306.02392578 C93.54968705 283.3584153 99.13198549 258.54085083 99.265625 234.2421875 C99.27263931 233.38462357 99.27965363 232.52705963 99.28688049 231.64350891 C99.30430179 228.88728532 99.31073383 226.13127665 99.3125 223.375 C99.31317474 222.4331485 99.31384949 221.491297 99.31454468 220.52090454 C99.29836954 206.31746993 98.8633771 192.46854751 96.0625 178.5 C95.89621094 177.6435791 95.72992187 176.7871582 95.55859375 175.90478516 C88.75978562 141.92963009 74.05458072 109.70298296 54.0625 81.5 C53.37051514 80.52184326 53.37051514 80.52184326 52.66455078 79.52392578 C45.87692053 70.01480748 38.49661365 61.37276225 30.41943359 52.94238281 C28.7283042 51.14475913 27.14226595 49.27071914 25.5625 47.375 C18.50221784 39.22184861 9.99574457 32.24263136 1.8125 25.25 C1.22533203 24.74791016 0.63816406 24.24582031 0.03320312 23.72851562 C-2.51441426 21.55428072 -5.06874298 19.39091493 -7.64453125 17.25 C-12.21398552 13.3701317 -16.82672561 9.27430236 -18.9375 3.5 C-18.6796875 1.328125 -18.6796875 1.328125 -17.9375 -0.5 C-12.4871516 -3.2251742 -5.58354529 -1.62079895 0 0 Z " fill="#289DE8" transform="translate(656.9375,338.5)"/>
    <path d="M0 0 C-1.02830579 3.00699708 -1.84620903 3.91249946 -4.65356445 5.50976562 C-13.28871446 9.05939251 -21.99766726 12.08456943 -30.92678833 14.80957031 C-33.24918349 15.51883837 -35.5680916 16.2386703 -37.88647461 16.9609375 C-44.10883789 18.8961403 -50.3354784 20.81350429 -56.5859375 22.65625 C-106.97725722 37.65265581 -156.02380337 67.16332229 -195.48144531 101.69189453 C-196.96155991 102.96688713 -198.47661782 104.20095679 -199.9921875 105.43359375 C-208.59604393 112.46105867 -216.44811447 120.23145506 -224.3125 128.0625 C-225.1522084 128.89444382 -225.1522084 128.89444382 -226.00888062 129.74319458 C-233.14636711 136.82863513 -239.75685788 144.09838867 -246 152 C-247.0846378 153.31702685 -248.17281092 154.63115579 -249.265625 155.94140625 C-289.69414265 204.83680301 -319.02836392 264.03780402 -329 327 C-329.13680176 327.80743652 -329.27360352 328.61487305 -329.41455078 329.44677734 C-334.01320403 357.34458247 -334.15166308 388.02848835 -330 416 C-329.84934082 417.03560059 -329.69868164 418.07120117 -329.54345703 419.13818359 C-319.60748812 485.08209251 -290.87270336 545.61349879 -245 594 C-244.2884375 594.75410156 -243.576875 595.50820313 -242.84375 596.28515625 C-237.61515871 601.67446244 -231.8690109 606.32905592 -226 611 C-224.94964668 611.86352114 -223.90019037 612.72813435 -222.8515625 613.59375 C-181.35522591 647.49277182 -127.49298213 666.50556842 -74 666.375 C-73.18861572 666.37478851 -72.37723145 666.37457703 -71.54125977 666.37435913 C-41.67360341 666.29767662 -12.18848655 662.07892829 16 652 C17.38759971 651.54818379 18.7756565 651.09776993 20.1640625 650.6484375 C25.88879425 648.74803651 31.46854546 646.5017004 37.0625 644.25 C38.15780029 643.81115479 39.25310059 643.37230957 40.3815918 642.92016602 C47.38860406 640.09727486 54.34746047 637.18691783 61.22875977 634.06933594 C65.89581111 631.9686124 69.57489279 630.85809882 74.6875 630.875 C75.47511719 630.87242187 76.26273438 630.86984375 77.07421875 630.8671875 C79 631 79 631 80 632 C81.14978587 638.40594986 77.48621734 642.95644005 74 648 C71.4981898 650.99396958 68.80162659 653.72469223 66 656.4375 C65.25161865 657.17121826 64.5032373 657.90493652 63.73217773 658.66088867 C51.93388557 670.06569557 38.78785882 679.16522336 25 688 C23.47826172 688.98806641 23.47826172 688.98806641 21.92578125 689.99609375 C-21.36317785 716.73520829 -77.83557486 722.89198553 -127.1875 715.3125 C-127.99413086 715.19052246 -128.80076172 715.06854492 -129.63183594 714.94287109 C-145.77325248 712.45475972 -161.27714756 708.27531036 -176.625 702.6875 C-177.69057129 702.30070068 -178.75614258 701.91390137 -179.85400391 701.51538086 C-187.87989947 698.54046349 -195.4895171 695.13166757 -203.01171875 691.06103516 C-205.17842813 689.90478283 -207.36716238 688.80009444 -209.5625 687.69921875 C-243.26915758 670.64968086 -276.25259248 644.53551369 -299.77734375 614.77734375 C-301.73361702 612.33286169 -303.76113526 609.97416621 -305.82739258 607.62280273 C-330.0174245 579.87222043 -347.67700625 546.10045157 -361 512 C-361.36077637 511.08927734 -361.72155273 510.17855469 -362.09326172 509.24023438 C-371.8011082 484.55213793 -377.12638184 459.16151248 -381 433 C-381.18401367 431.77144287 -381.36802734 430.54288574 -381.55761719 429.27709961 C-395.68171183 333.14769419 -361.242673 234.05589207 -304.2890625 157.33203125 C-296.40944726 146.85593302 -287.84520344 136.93065325 -279.0234375 127.2421875 C-277.26657604 125.29539507 -275.56779748 123.31464118 -273.875 121.3125 C-266.31864518 112.64127316 -257.97801542 104.24729135 -249.17578125 96.83984375 C-247.37431429 95.3165207 -245.61201043 93.76565073 -243.85546875 92.19140625 C-207.44611541 59.75053781 -163.83426105 34.45666678 -118 18 C-117.1450293 17.69255859 -116.29005859 17.38511719 -115.40917969 17.06835938 C-27.71646204 -13.85823102 -27.71646204 -13.85823102 0 0 Z " fill="#8601FF" transform="translate(529,48)"/>
    <path d="M0 0 C2.26744416 0.58936403 4.54365436 1.14528345 6.82421875 1.68164062 C16.50471963 3.95986142 25.69890781 6.98452386 34.97460938 10.55566406 C35.6722641 10.82155334 36.36991882 11.08744263 37.0887146 11.36138916 C47.92350214 15.49103103 58.68326246 19.6967835 69.09960938 24.80566406 C70.09202637 25.29228516 71.08444336 25.77890625 72.10693359 26.28027344 C96.21779701 38.21980468 118.02037563 52.1131437 139.09960938 68.80566406 C139.96247559 69.4852417 140.8253418 70.16481934 141.71435547 70.86499023 C146.37316923 74.5565928 150.88201237 78.30983176 155.22460938 82.36816406 C158.42542441 85.3461504 161.636535 88.29363959 164.97460938 91.11816406 C173.99800001 98.94978613 182.40218586 107.67848153 190.09960938 116.80566406 C190.95425781 117.77117187 191.80890625 118.73667969 192.68945312 119.73144531 C205.07423419 133.77876671 216.05208519 149.01111243 226.09960938 164.80566406 C226.46328613 165.37607422 226.82696289 165.94648438 227.20166016 166.53417969 C234.57823051 178.21237175 240.87419899 190.48597474 247.09960938 202.80566406 C247.48004395 203.5557373 247.86047852 204.30581055 248.25244141 205.07861328 C274.95693705 258.22394947 284.31611413 315.88899762 284.34960938 374.80566406 C284.35061646 376.04011261 284.35162354 377.27456116 284.35266113 378.54641724 C284.3417011 398.47417748 283.62579439 418.03637376 281.09960938 437.80566406 C280.97634277 438.85286621 280.85307617 439.90006836 280.72607422 440.97900391 C276.11339088 479.24513331 264.39838421 517.98641732 248.09960938 552.80566406 C247.69629395 553.67271973 247.29297852 554.53977539 246.87744141 555.43310547 C235.90838611 578.79042877 221.39877877 603.2785386 202.09960938 620.80566406 C199.79101563 621.61816406 199.79101563 621.61816406 198.09960938 621.80566406 C197.73267903 616.41264125 198.98874403 612.2986824 200.78710938 607.30566406 C201.08746094 606.45834717 201.3878125 605.61103027 201.69726562 604.73803711 C205.8769419 593.27329038 210.91632385 582.14839965 215.82966614 570.98464966 C223.03118306 554.60630166 229.50798962 538.24382715 233.62011719 520.80273438 C234.38281687 517.62611348 235.21862125 514.46830218 236.03710938 511.30566406 C260.27539061 414.55682806 252.0027918 308.88649875 195.71386719 202.45849609 C177.02676991 171.74857489 153.41637199 142.16691708 125.09960938 119.80566406 C123.96759351 118.87426284 122.83747992 117.9405462 121.70898438 117.00488281 C112.27957297 109.23558802 102.41526322 102.34584805 92.09960938 95.80566406 C91.4436377 95.38607422 90.78766602 94.96648437 90.11181641 94.53417969 C62.40002503 76.97843121 30.49316491 63.3049371 -1.57714844 56.33422852 C-4.23985503 55.72843199 -6.87505072 55.03703898 -9.51757812 54.34863281 C-75.7414176 37.77963881 -148.8362874 48.44428503 -207.52929688 83.05566406 C-212.08223021 85.83523906 -216.52421386 88.75611034 -220.90039062 91.80566406 C-221.76204834 92.40604492 -221.76204834 92.40604492 -222.64111328 93.01855469 C-270.50604949 126.83946056 -305.02347644 177.29573461 -320.35498047 233.796875 C-320.8637052 235.67054871 -321.3910994 237.5391257 -321.91992188 239.40722656 C-324.64210744 249.53679358 -326.33616558 259.7930138 -327.88671875 270.1640625 C-331.03908588 289.94435932 -331.03908588 289.94435932 -336.90039062 295.80566406 C-339.27539062 295.99316406 -339.27539062 295.99316406 -341.90039062 294.80566406 C-343.82229468 292.03113349 -344.82407803 288.9870539 -345.90039062 285.80566406 C-346.25230469 284.77441406 -346.60421875 283.74316406 -346.96679688 282.68066406 C-355.56245372 254.26107537 -355.08568183 217.46342819 -347.90039062 188.80566406 C-347.60654974 187.50016195 -347.3147567 186.19419656 -347.02539062 184.88769531 C-342.98146887 168.04403906 -336.00981815 152.05343221 -327.90039062 136.80566406 C-327.41054688 135.84789062 -326.92070312 134.89011719 -326.41601562 133.90332031 C-317.00447663 115.89978644 -304.09012253 100.13262105 -290.90039062 84.80566406 C-290.25070312 84.0309375 -289.60101563 83.25621094 -288.93164062 82.45800781 C-285.50885414 78.42067557 -281.8857902 74.9228272 -277.84570312 71.50488281 C-276.04401668 69.93112056 -274.4175173 68.29268751 -272.77539062 66.55566406 C-267.32985615 61.04908099 -261.05619369 56.47810652 -254.90039062 51.80566406 C-254.15611816 51.23831543 -253.4118457 50.6709668 -252.64501953 50.08642578 C-242.41974051 42.32133232 -232.15138055 35.00471882 -220.90039062 28.80566406 C-220.08151367 28.34981934 -219.26263672 27.89397461 -218.41894531 27.42431641 C-197.94431465 16.11370409 -176.4581466 7.05990693 -153.90039062 0.80566406 C-152.71243896 0.47574463 -152.71243896 0.47574463 -151.50048828 0.13916016 C-102.61503158 -13.11016923 -48.94133885 -12.99847074 0 0 Z " fill="#01FFF4" transform="translate(653.900390625,179.1943359375)"/>
    <path d="M0 0 C0.69705551 -0.00104485 1.39411102 -0.00208969 2.11228943 -0.0031662 C25.250766 -0.03500248 47.60984476 1.03560994 70.3125 5.625 C71.46957458 5.85410065 71.46957458 5.85410065 72.65002441 6.08782959 C84.34015953 8.40701418 95.83402971 11.09834475 107.20117188 14.71044922 C109.16149501 15.32747045 111.13508552 15.90189972 113.109375 16.47265625 C159.8092836 30.21661669 206.30614833 53.07764112 244.61767578 83.06103516 C247.20837799 85.06955709 249.85840218 86.99666415 252.5 88.9375 C261.85489008 95.96316169 270.63198681 103.64090162 279.20385742 111.59448242 C281.78879421 113.99221172 284.40426135 116.32046592 287.125 118.5625 C290.23869989 121.18851196 292.80619394 124.14881786 295.4375 127.25 C297.42843503 129.50639303 299.53019016 131.59011543 301.6875 133.6875 C306.65142362 138.60119842 310.96219686 143.91963593 315.3125 149.375 C316.22470476 150.47550086 317.13884797 151.57439715 318.0546875 152.671875 C336.95801746 175.50213726 372.73332692 220.90425 370.3125 252.375 C360.06609928 249.58052708 353.42796125 237.40166916 347.3125 229.375 C346.59054443 228.42826416 346.59054443 228.42826416 345.85400391 227.46240234 C340.56048828 220.50060578 335.37050527 213.47491386 330.29980469 206.34912109 C325.01438449 198.93566437 319.59764155 191.98160382 313.3125 185.375 C311.62470067 183.50026944 309.93722296 181.6252493 308.25 179.75 C303.66757517 174.72942162 298.92192851 169.87781609 294.125 165.0625 C293.14551392 164.07612549 293.14551392 164.07612549 292.14624023 163.06982422 C287.69854352 158.6361263 283.07729071 154.46403168 278.3125 150.375 C277.35988281 149.54097656 276.40726563 148.70695313 275.42578125 147.84765625 C223.0795458 102.80215099 159.78993136 69.70236901 92.3125 54.375 C91.57128906 54.20452148 90.83007812 54.03404297 90.06640625 53.85839844 C67.85145228 48.84785865 45.08593048 45.73876861 22.3125 45.375 C21.17651367 45.34921875 20.04052734 45.3234375 18.87011719 45.296875 C-40.21906497 44.05648283 -102.16856882 57.61673987 -152.6875 89.375 C-153.3578125 89.79491211 -154.028125 90.21482422 -154.71875 90.64746094 C-163.60753535 96.23866565 -172.32498149 102.01612653 -180.6875 108.375 C-181.20844238 108.7659082 -181.72938477 109.15681641 -182.26611328 109.55957031 C-191.39594617 116.43022858 -199.7454115 123.93000595 -208.015625 131.8046875 C-210.27421893 133.92607713 -212.60388311 135.96177765 -214.9375 138 C-225.05195075 147.07792853 -233.5039534 157.57271848 -241.6875 168.375 C-242.14656738 168.97715332 -242.60563477 169.57930664 -243.07861328 170.19970703 C-250.20103949 179.57736032 -256.69849596 189.23606276 -262.6875 199.375 C-263.12562012 200.11282715 -263.56374023 200.8506543 -264.01513672 201.61083984 C-275.56813523 221.26799432 -284.47838811 242.04448896 -290.10400391 264.14990234 C-290.61789411 266.10956564 -291.20026486 268.05099823 -291.79296875 269.98828125 C-309.30171491 328.1495185 -297.30295354 395.69406794 -269.07641602 448.26245117 C-259.08525021 466.44417283 -247.1111835 483.85888025 -232.90625 499.0078125 C-230.9974506 501.04431327 -229.17767421 503.12037017 -227.375 505.25 C-218.96819331 514.88321144 -209.72221412 523.46628463 -199.6875 531.375 C-182.99704649 544.57332955 -182.99704649 544.57332955 -180.75 552.8125 C-180.729375 553.658125 -180.70875 554.50375 -180.6875 555.375 C-182.91934107 557.60684107 -187.36592395 556.74943763 -190.3671875 556.7512207 C-221.44603179 555.98504086 -256.17284935 529.40757092 -277.93359375 508.91796875 C-279.82235674 507.17387697 -281.77127982 505.49339738 -283.765625 503.87109375 C-286.55193054 501.49081401 -288.72896878 499.11551962 -291 496.25 C-294.41617719 491.96263101 -294.41617719 491.96263101 -297.9140625 487.7421875 C-319.63588645 462.02907434 -333.8692859 431.32699924 -343.6875 399.375 C-343.90776855 398.66537109 -344.12803711 397.95574219 -344.35498047 397.22460938 C-349.88523547 379.09844025 -352.7692354 359.74382749 -352.92578125 340.8125 C-352.93552979 339.83119614 -352.94527832 338.84989227 -352.95532227 337.83885193 C-353.26492238 298.64057519 -353.26492238 298.64057519 -349.26416016 280.08447266 C-348.69091577 277.39104918 -348.20345049 274.69311483 -347.73046875 271.98046875 C-342.79617061 245.16958161 -332.91218831 218.6536923 -320.6875 194.375 C-320.28885742 193.56434082 -319.89021484 192.75368164 -319.47949219 191.91845703 C-309.37368696 171.41702922 -297.05166131 152.14211732 -282.6875 134.375 C-281.89988281 133.38757813 -281.11226563 132.40015625 -280.30078125 131.3828125 C-278.12533235 128.6879117 -275.91439378 126.0275117 -273.6875 123.375 C-273.25147461 122.84874023 -272.81544922 122.32248047 -272.36621094 121.78027344 C-262.93838384 110.41315737 -252.88350481 99.55066474 -241.58984375 90 C-239.33896391 88.07727718 -237.17680088 86.06863969 -235 84.0625 C-229.1624159 78.80421814 -222.98638652 74.05719664 -216.6875 69.375 C-216.15705078 68.97700195 -215.62660156 68.57900391 -215.08007812 68.16894531 C-190.90794721 50.10641664 -163.89280941 35.10073315 -135.6875 24.375 C-134.71570801 24.00536133 -133.74391602 23.63572266 -132.74267578 23.25488281 C-119.57052476 18.29359755 -106.3809039 13.66393478 -92.6875 10.375 C-91.70571777 10.1368457 -90.72393555 9.89869141 -89.71240234 9.65332031 C-81.41078418 7.67417642 -73.07284872 5.95958917 -64.6875 4.375 C-63.57987305 4.1589209 -62.47224609 3.9428418 -61.33105469 3.72021484 C-41.0181395 -0.05509667 -20.58052088 0.0069557 0 0 Z " fill="#289DE8" transform="translate(574.6875,106.625)"/>
</svg>
